<svg width="43" height="65" viewBox="0 0 43 65" fill="none" xmlns="http://www.w3.org/2000/svg">
<path d="M10.072 60.132C9.22133 60.132 8.45133 59.978 7.762 59.67C7.07267 59.362 6.52267 58.8633 6.112 58.174C5.70133 57.4847 5.496 56.568 5.496 55.424V48.626C5.496 47.482 5.70133 46.5653 6.112 45.876C6.52267 45.1867 7.06533 44.688 7.74 44.38C8.42933 44.072 9.20667 43.918 10.072 43.918C10.9373 43.918 11.7147 44.072 12.404 44.38C13.0933 44.688 13.6433 45.1867 14.054 45.876C14.4647 46.5653 14.67 47.482 14.67 48.626V55.424C14.67 56.568 14.4647 57.4847 14.054 58.174C13.6433 58.8633 13.0933 59.362 12.404 59.67C11.7147 59.978 10.9373 60.132 10.072 60.132ZM10.072 58.79C11.0547 58.79 11.8173 58.5187 12.36 57.976C12.9173 57.4333 13.196 56.5827 13.196 55.424V48.626C13.196 47.4673 12.9173 46.6167 12.36 46.074C11.8173 45.5313 11.0547 45.26 10.072 45.26C9.08933 45.26 8.32667 45.5313 7.784 46.074C7.24133 46.6167 6.97 47.4673 6.97 48.626V55.424C6.97 56.5827 7.24133 57.4333 7.784 57.976C8.32667 58.5187 9.08933 58.79 10.072 58.79ZM18.1222 60C17.9662 60 17.8282 59.964 17.7082 59.892C17.5882 59.808 17.5282 59.688 17.5282 59.532V47.292C17.5282 47.136 17.5882 47.022 17.7082 46.95C17.8282 46.878 17.9662 46.842 18.1222 46.842C18.2662 46.842 18.3982 46.878 18.5182 46.95C18.6502 47.022 18.7162 47.136 18.7162 47.292V53.646L23.9182 47.022C24.0022 46.902 24.1222 46.842 24.2782 46.842C24.3862 46.842 24.4882 46.872 24.5842 46.932C24.6922 46.992 24.7762 47.07 24.8362 47.166C24.9082 47.262 24.9442 47.358 24.9442 47.454C24.9442 47.49 24.9382 47.538 24.9262 47.598C24.9142 47.646 24.8902 47.688 24.8542 47.724L20.9842 52.53L25.4122 59.19C25.4602 59.262 25.4842 59.34 25.4842 59.424C25.4842 59.532 25.4482 59.634 25.3762 59.73C25.3162 59.814 25.2322 59.886 25.1242 59.946C25.0282 60.006 24.9202 60.036 24.8002 60.036C24.7162 60.036 24.6322 60.012 24.5482 59.964C24.4762 59.916 24.4102 59.85 24.3502 59.766L20.1922 53.538L18.7162 55.392V59.532C18.7162 59.688 18.6502 59.808 18.5182 59.892C18.3982 59.964 18.2662 60 18.1222 60ZM31.654 60.132C30.8034 60.132 30.0334 59.978 29.344 59.67C28.6547 59.362 28.1047 58.8633 27.694 58.174C27.2834 57.4847 27.078 56.568 27.078 55.424V48.626C27.078 47.482 27.2834 46.5653 27.694 45.876C28.1047 45.1867 28.6474 44.688 29.322 44.38C30.0114 44.072 30.7887 43.918 31.654 43.918C32.5194 43.918 33.2967 44.072 33.986 44.38C34.6754 44.688 35.2254 45.1867 35.636 45.876C36.0467 46.5653 36.252 47.482 36.252 48.626V55.424C36.252 56.568 36.0467 57.4847 35.636 58.174C35.2254 58.8633 34.6754 59.362 33.986 59.67C33.2967 59.978 32.5194 60.132 31.654 60.132ZM31.654 58.79C32.6367 58.79 33.3994 58.5187 33.942 57.976C34.4994 57.4333 34.778 56.5827 34.778 55.424V48.626C34.778 47.4673 34.4994 46.6167 33.942 46.074C33.3994 45.5313 32.6367 45.26 31.654 45.26C30.6714 45.26 29.9087 45.5313 29.366 46.074C28.8234 46.6167 28.552 47.4673 28.552 48.626V55.424C28.552 56.5827 28.8234 57.4333 29.366 57.976C29.9087 58.5187 30.6714 58.79 31.654 58.79Z" fill="#333333"/>
<path d="M38.2549 8.02051L29.2266 23.6416C28.8906 24.8734 28.3027 25.9512 27.4629 26.875H42.2861C42.762 25.0553 43 23.2637 43 21.5C43 16.4609 41.4183 11.9678 38.2549 8.02051ZM21.5 29.5625C21.0801 29.5625 20.6602 29.5345 20.2402 29.4785L27.5469 42.1182C30.6823 41.1943 33.4748 39.6266 35.9243 37.415C38.3739 35.2035 40.2005 32.5859 41.4043 29.5625H21.5ZM13.9834 24.3975L6.67676 37.0371C8.63639 38.9128 10.89 40.3755 13.4375 41.4253C15.985 42.4751 18.6725 43 21.5 43C22.5918 43 23.6976 42.916 24.8174 42.748L15.8311 27.1689C14.9912 26.3571 14.3753 25.4333 13.9834 24.3975ZM15.4951 16.167H0.671875C0.223958 17.9027 0 19.6803 0 21.5C0 26.5391 1.58171 31.0322 4.74512 34.9795L13.7314 19.4424C14.0674 18.2386 14.6553 17.1468 15.4951 16.167ZM21.5 13.4375C21.8079 13.4375 22.2279 13.4795 22.7598 13.5635L15.4531 0.881836C12.2897 1.80566 9.49023 3.37337 7.05469 5.58496C4.61914 7.79655 2.78548 10.4281 1.55371 13.4795H21.248C21.276 13.4795 21.318 13.4725 21.374 13.4585C21.43 13.4445 21.472 13.4375 21.5 13.4375ZM29.0166 18.6445L36.3232 5.96289C34.3636 4.08724 32.11 2.62451 29.5625 1.57471C27.015 0.524902 24.3275 0 21.5 0C20.4922 0 19.3864 0.0979805 18.1826 0.293945L27.127 15.7471C27.9388 16.5309 28.5687 17.4967 29.0166 18.6445Z" fill="#333333"/>
<line x1="11" y1="64.5" x2="31" y2="64.5" stroke="#333333"/>
</svg>
