<svg width="71" height="79" viewBox="0 0 71 79" fill="none" xmlns="http://www.w3.org/2000/svg">
<rect width="71" height="79" fill="black"/>
<path d="M57.041 22.0723L45.7031 41.6895C45.2812 43.2363 44.543 44.5898 43.4883 45.75H62.1035C62.7012 43.4648 63 41.2148 63 39C63 32.6719 61.0137 27.0293 57.041 22.0723ZM36 49.125C35.4727 49.125 34.9453 49.0898 34.418 49.0195L43.5938 64.8926C47.5312 63.7324 51.0381 61.7637 54.1143 58.9863C57.1904 56.209 59.4844 52.9219 60.9961 49.125H36ZM26.5605 42.6387L17.3848 58.5117C19.8457 60.8672 22.6758 62.7041 25.875 64.0225C29.0742 65.3408 32.4492 66 36 66C37.3711 66 38.7598 65.8945 40.166 65.6836L28.8809 46.1191C27.8262 45.0996 27.0527 43.9395 26.5605 42.6387ZM28.459 32.3027H9.84375C9.28125 34.4824 9 36.7148 9 39C9 45.3281 10.9863 50.9707 14.959 55.9277L26.2441 36.416C26.666 34.9043 27.4043 33.5332 28.459 32.3027ZM36 28.875C36.3867 28.875 36.9141 28.9277 37.582 29.0332L28.4062 13.1074C24.4336 14.2676 20.918 16.2363 17.8594 19.0137C14.8008 21.791 12.498 25.0957 10.9512 28.9277H35.6836C35.7188 28.9277 35.7715 28.9189 35.8418 28.9014C35.9121 28.8838 35.9648 28.875 36 28.875ZM45.4395 35.4141L54.6152 19.4883C52.1543 17.1328 49.3242 15.2959 46.125 13.9775C42.9258 12.6592 39.5508 12 36 12C34.7344 12 33.3457 12.123 31.834 12.3691L43.0664 31.7754C44.0859 32.7598 44.877 33.9727 45.4395 35.4141Z" fill="white"/>
</svg>
